Simulation
nRows=44
nColumns=15
endheader
time  TH_x TH_y TH_z SC_y  SC_z  SC_x  AC_y  AC_z  AC_x  GH_y  GH_z  GH_yy  EL_x  PS_y
0.0  0.000000  0.000000  0.000000  -28.75949249577528  -0.32258380883431953  0.581646495963362  49.03127060492579  5.200965440554451  -4.601481599317752  41.584405646819334  8.760250529916723  -10.7746471109736  22.79594617110679  0.000000
0.031  0.000000  0.000000  0.000000  -28.752959848622567  -0.17554384152776867  0.7290809726747236  48.8476693373989  5.3788882499655495  -4.6819184797719045  40.2411277103736  9.009771252565663  -9.543488211723945  22.75122543795042  0.000000
0.062  0.000000  0.000000  0.000000  -28.6597458100085  -0.10112525501207464  0.8462903545107989  48.73817520301142  5.391003629985131  -4.804709215875384  39.319305624834534  9.281628335502592  -8.69595114605572  22.72932413487758  0.000000
0.093  0.000000  0.000000  0.000000  -28.659144840612825  -0.10126041026424498  0.9478811695768374  48.65485870123541  5.288758150243056  -4.933555514449611  38.86976254748554  9.59698544072999  -8.34734106724128  22.68043585776982  0.000000
0.124  0.000000  0.000000  0.000000  -28.646513738039207  -0.13983438214929575  1.0168175271788666  48.58346977349854  5.156252733716646  -5.068779558746038  38.778064596004505  9.921877543201486  -8.391308805508315  22.596692867890425  0.000000
0.155  0.000000  0.000000  0.000000  -28.66293772155628  -0.20632985013610824  1.0630121652681246  48.53168262032194  5.0232603710367405  -5.198776998649219  38.87447088520926  10.27584585370426  -8.664894936085771  22.476754175978517  0.000000
0.186  0.000000  0.000000  0.000000  -28.688526374776416  -0.28555668035705384  1.0914365060932407  48.482000812662065  4.905696126085381  -5.318497669612161  39.06531767688563  10.668078550842  -9.106295250732439  22.32718519457444  0.000000
0.217  0.000000  0.000000  0.000000  -28.733633276334476  -0.36673319207883703  1.1141707186128114  48.45052210418457  4.805189014995579  -5.430640512243842  39.26575467461866  11.121975069396075  -9.634608468164132  22.153496432326346  0.000000
0.248  0.000000  0.000000  0.000000  -28.794461144706503  -0.44010236693975774  1.1381389155185297  48.4208146332022  4.721457342208943  -5.52980839874176  39.42067376257636  11.644945131809715  -10.21075321356604  21.968298752949565  0.000000
0.279  0.000000  0.000000  0.000000  -28.870171939544285  -0.5013737011694073  1.169058258370462  48.40427779287482  4.653985302854759  -5.619857462758485  39.49037862944411  12.246995455062187  -10.790843908466337  21.773812230029495  0.000000
0.31  0.000000  0.000000  0.000000  -28.953956726908103  -0.5481799882920162  1.2112935394152238  48.39330446468954  4.603106265249595  -5.697682094159656  39.44701052729595  12.925368951827197  -11.346535946704076  21.583272018447243  0.000000
0.34099999999999997  0.000000  0.000000  0.000000  -29.042903978501876  -0.5812291332696433  1.267655471668819  48.39770746039252  4.566663370484607  -5.764410740451713  39.273883758120576  13.681652650551891  -11.857626258472257  21.4030448122413  0.000000
0.372  0.000000  0.000000  0.000000  -29.134869153875616  -0.6036491538960719  1.3393738260641987  48.41977925507667  4.543762486603813  -5.817070047912643  38.94536288688926  14.512481556379047  -12.2981515268978  21.254903212490856  0.000000
0.403  0.000000  0.000000  0.000000  -29.230729184799486  -0.619417757273715  1.4264965635194427  48.46869590402207  4.5309428760957715  -5.853564426989226  38.43731177038861  15.417294359606462  -12.644507228759997  21.158049010878653  0.000000
0.434  0.000000  0.000000  0.000000  -29.329598336391335  -0.6323948645415721  1.528286710669017  48.5490065468017  4.52700565805138  -5.872476128334929  37.741260013629216  16.39389907827615  -12.884783561874562  21.131821963384436  0.000000
0.46499999999999997  0.000000  0.000000  0.000000  -29.427989929453528  -0.6431416477921907  1.6437598720388804  48.66174585840782  4.530173144890143  -5.872103142498819  36.87149190747056  17.43971325350947  -13.017734804213923  21.17562007653012  0.000000
0.496  0.000000  0.000000  0.000000  -29.51689816406849  -0.648475309319062  1.7711571480508936  48.80324173086239  4.542215307204028  -5.852968168916429  35.874746857196  18.551793061794584  -13.06128889419423  21.271799982389723  0.000000
0.527  0.000000  0.000000  0.000000  -29.587038325393998  -0.6419055551647006  1.910337777029836  48.964517525626505  4.564846528401658  -5.8147427023821745  34.80647118576889  19.724988782503953  -13.033611148269696  21.390145673367286  0.000000
0.558  0.000000  0.000000  0.000000  -29.63291904983045  -0.6161613099555763  2.06178716621812  49.136256873591456  4.601580898005692  -5.7604650032367255  33.732232139590955  20.95453774145132  -12.96863712887787  21.50235065363161  0.000000
0.589  0.000000  0.000000  0.000000  -29.659455413002934  -0.5647513265515541  2.2282758050836207  49.30829085134968  4.65435604388415  -5.693067702499662  32.7074941964337  22.234488847374795  -12.900742499520291  21.59003162678571  0.000000
0.62  0.000000  0.000000  0.000000  -29.675172055289767  -0.48312335181663874  2.4134552245320373  49.4735540169127  4.724432947486687  -5.617842539309029  31.778672742648848  23.559312668332385  -12.86869573745522  21.645105328023476  0.000000
0.651  0.000000  0.000000  0.000000  -29.69043894601312  -0.36963475428848064  2.622814683434224  49.62823488480949  4.810324288519134  -5.538732157237953  30.96535413627236  24.922775369374566  -12.891732561561467  21.666483569881397  0.000000
0.6819999999999999  0.000000  0.000000  0.000000  -29.707581798405965  -0.22678243077336566  2.8610246437704125  49.773400930147695  4.909061213748734  -5.4601230095776065  30.26230894671371  26.320353829662555  -12.972229632351674  21.657207893107778  0.000000
0.713  0.000000  0.000000  0.000000  -29.724663304603112  -0.06089873926577239  3.132027775021397  49.91359151543929  5.015928314263169  -5.384678327304325  29.63988345882271  27.748773698230824  -13.090492686216022  21.623853830423904  0.000000
0.744  0.000000  0.000000  0.000000  -29.734311698011183  0.12026160116462356  3.437297945357398  50.05499626023671  5.127515955136487  -5.314974972535279  29.065984728708226  29.204718755692284  -13.224580495970466  21.574222346685573  0.000000
0.775  0.000000  0.000000  0.000000  -29.73243688759159  0.3100589222321352  3.7776414159591303  50.20199054388709  5.24221585458969  -5.2519697348775205  28.51874158822958  30.681772090045328  -13.359493194028838  21.51385051914822  0.000000
0.806  0.000000  0.000000  0.000000  -29.71668947960852  0.5054381628566276  4.153729192576206  50.35675243935064  5.361151869904925  -5.196886594558942  27.997521550103794  32.16884659407955  -13.497731235584583  21.442601852416537  0.000000
0.837  0.000000  0.000000  0.000000  -29.69070067955932  0.7061791433009548  4.567769287732719  50.518882452935166  5.48581862198518  -5.149922387455341  27.513364916821505  33.65092694836496  -13.649513883721397  21.35586986510613  0.000000
0.868  0.000000  0.000000  0.000000  -29.65778178933006  0.9130610384876392  5.021490792613812  50.686631596250756  5.617139909464931  -5.112028402331617  27.07993087371935  35.112862739351485  -13.827709339418787  21.247852421364744  0.000000
0.899  0.000000  0.000000  0.000000  -29.62247145278932  1.1271073122779096  5.516008306209728  50.85726298617007  5.753659831313368  -5.083368012882005  26.702260049427082  36.54205661584408  -14.037652786400725  21.114743676304894  0.000000
0.9299999999999999  0.000000  0.000000  0.000000  -29.586797816638423  1.3485845790129158  6.049830352210784  51.02757294347255  5.892829986001847  -5.064488691332084  26.378428836987027  37.93059767339706  -14.280774515581607  20.95539271252215  0.000000
0.961  0.000000  0.000000  0.000000  -29.555252568185754  1.5777385536417785  6.620608196061321  51.19305923813299  6.031699848945216  -5.055206226900803  26.103043845376313  39.27435598633607  -14.556194393255014  20.770169342781426  0.000000
0.992  0.000000  0.000000  0.000000  -29.532122138215865  1.8160750226696776  7.2261497653384055  51.34766749875462  6.168457426017151  -5.056592989633458  25.87612531195346  40.57108124087705  -14.868991432107459  20.559420276034473  0.000000
1.023  0.000000  0.000000  0.000000  -29.52586515190623  2.066693957824476  7.867358732996023  51.484345414984915  6.301803423076262  -5.069796075014652  25.704849334445477  41.819215357867904  -15.22898874191315  20.32318448631272  0.000000
1.054  0.000000  0.000000  0.000000  -29.54355962663301  2.333672458565101  8.545325138170913  51.59696469401514  6.432206301220295  -5.095047649943755  25.599873098910653  43.018010280609154  -15.647336575074842  20.062154074163104  0.000000
1.085  0.000000  0.000000  0.000000  -29.590825401478803  2.620167393678777  9.261665505811186  51.68303151624547  6.561722333607322  -5.129577814838681  25.559482032479877  44.167357986886984  -16.12033573915276  19.7813929204464  0.000000
1.116  0.000000  0.000000  0.000000  -29.66609948412095  2.926299620568612  10.017539412309405  51.74626933424047  6.692905931882647  -5.168167651452598  25.560782188895793  45.26767252928774  -16.622366683442458  19.492370443806937  0.000000
1.147  0.000000  0.000000  0.000000  -29.765904869485865  3.249667021113844  10.813114880338686  51.795272191791554  6.828113644845962  -5.202490669333378  25.56467608072126  46.32022143660788  -17.110533341833822  19.21244276732821  0.000000
1.178  0.000000  0.000000  0.000000  -29.88497884112576  3.586247646984812  11.645319440393653  51.839187394534186  6.970352598067248  -5.223933055510223  25.53311179212602  47.32650951852658  -17.543612372954176  18.959394107466625  0.000000
1.209  0.000000  0.000000  0.000000  -30.02379563913248  3.932299575402743  12.509749674149328  51.88289926128927  7.121584908046541  -5.22580952558392  25.445085011893145  48.28901052358642  -17.896636493161743  18.744662745213535  0.000000
1.24  0.000000  0.000000  0.000000  -30.186533977992376  4.28585751414292  13.399408300390107  51.92377363254426  7.282382772220889  -5.204896608147268  25.304904533392612  49.21020867732806  -18.168673414644108  18.57073594845955  0.000000
1.271  0.000000  0.000000  0.000000  -30.381744952429692  4.646052053335776  14.306429901661692  51.95453973103594  7.451919328184152  -5.160933744620169  25.13283073515854  50.09294088002433  -18.374385691153126  18.43313235919357  0.000000
1.302  0.000000  0.000000  0.000000  -30.612860755854147  5.011733597836024  15.221545917668472  51.96714783470523  7.628340604831022  -5.095010983265762  24.94961557092039  50.93841231111662  -18.531455843701018  18.325072153119933  0.000000
1.333  0.000000  0.000000  0.000000  -30.87660207555391  5.3798030234680185  16.13552981332841  51.95721032816557  7.809477768803193  -5.008643481410735  24.763901336276934  51.74747400037393  -18.651487828411053  18.23983160342344  0.000000
